<?xml version="1.0" encoding="UTF-8"?>
<svg version="1.1" viewBox="0 0 2048 760" width="1280" height="1280" xmlns="http://www.w3.org/2000/svg">
<path transform="translate(0)" d="m0 0h2048v760h-2048z" fill="#FEFFFE"/>
<path transform="translate(1665,263)" d="m0 0h23l10 3 9 5 10 9 10 15 8 19 6 21 5 28 3 33v49l-3 38-4 25-7 26-8 20-10 19-12 17-12 13-10 10-13 10-17 10-18 8-19 6-22 4-8 1h-32l-18-3-19-7-12-8-7-8-4-8-1-4v-15l4-11 6-8 7-6 14-7 10-2h18l9 1h34l17-4 12-5 10-7 6-9-6 1-13 4-15 3-10 1h-32l-21-3-19-5-18-8-14-9-11-9-8-8-11-15-8-15-7-21-3-17v-22l3-22 6-21 8-17 8-12 7-9 11-12 12-10 18-11 16-7 21-6 14-2h27l26 3 9 2 7-14 6-7 11-7z" fill="#0F2D58"/>
<path transform="translate(905,281)" d="m0 0h19l10 3 10 7 7 10 4 7 9-6 16-8 11-3 6-1h29l17 3 18 6 16 9 14 12 9 10 9 14 8 16 6 16 6 24 3 19 2 35v14l-2 26-4 20-6 16-7 10-4 5-9 6-10 4-7 1h-10l-11-2-10-5-8-8-6-13-3-13-2-25-1-31-3-21-5-15-6-9-9-6-8-2h-12l-9 3-9 8-6 12-4 13-2 14-2 51-2 15-4 12-6 10-7 6-10 4-4 1h-18l-11-4-11-8-6-8-5-8-6-15-6-22-4-25-2-24v-48l3-35 5-25 7-21 6-11 8-10 10-7z" fill="#0F2D58"/>
<path transform="translate(1258,290)" d="m0 0h21l21 2 19 4 17 6 19 10 12 9 12 11 11 14 8 14 7 18 4 16 2 16v23l-3 24-6 21-1 4 8 9 5 11 2 7v13l-4 12-6 9-8 7-8 4-10 2h-10l-14-3-11-6-8-6-6 1-10 5-21 6-12 2-13 1h-19l-24-3-21-6-17-9-11-9-9-10-7-14-4-16v-20l3-12 7-14 11-12 13-9 17-8 18-5 13-2 13-1h12l20 2 18 4 4 2-3-10-6-9-6-5-8-4-10-2h-29l-12 3-17 7-10 2h-18l-12-3-10-7-6-9-3-10v-17l3-11 4-8 8-10 9-8 15-9 15-6 19-5 12-2z" fill="#0F2D58"/>
<path transform="translate(671,290)" d="m0 0h22l21 2 25 6 15 6 16 9 13 10 8 7 11 14 9 15 7 17 5 21 1 6v36l-4 25-4 12-1 6 8 10 5 11 1 4v17l-4 11-8 11-9 6-8 3-6 1h-11l-11-2-12-6-10-7-5 1-19 8-17 4-20 2h-20l-18-2-17-4-16-6-13-8-11-9-8-11-5-10-4-15-1-17 3-16 7-14 11-12 12-9 16-8 16-5 17-3 14-1 25 1 17 3 11 3-3-10-6-9-9-6-9-3-6-1h-29l-14 4-15 6-9 2h-18l-12-3-9-6-6-7-4-10-1-6v-10l3-14 5-10 11-12 10-8 17-9 15-5 17-4z" fill="#0F2D58"/>
<path transform="translate(405,290)" d="m0 0h33l32 2 24 4 16 5 15 8 10 9 6 10 4 11 2 13v12l-4 18-8 16-9 12-9 10-10 10-17 13-15 10-17 10h-2v2h29l25 3 13 4 9 5 8 9 4 11v20l-4 11-9 10-10 6-15 5-15 3-32 3h-61l-30-3-21-5-14-7-10-9-6-9-4-12-1-6v-18l4-13 7-12 11-12 14-14 14-11 21-16 17-12 4-3-33-1-25-2-17-4-11-6-6-5-6-10-3-10v-21l4-11 6-9 9-7 15-7 20-5 20-3z" fill="#0F2D58"/>
<path transform="translate(199,312)" d="m0 0h19l11 3 10 6 6 7 7 14 4 15 3 20 2 27v65l-2 26-4 22-6 16-7 10-7 6-8 4-6 2-7 1h-11l-11-2-12-6-7-7-6-10-5-15-4-25-2-27v-65l2-26 3-20 5-15 6-11 8-8 10-5z" fill="#0F2D58"/>
<path transform="translate(1834,312)" d="m0 0h18l12 3 9 6 8 9 6 13 5 21 3 31 1 28v33l-2 35-4 24-5 15-6 10-5 6-10 6-9 3-6 1h-11l-11-2-12-6-5-4-8-12-5-14-4-24-2-24-1-25v-26l2-42 4-25 6-18 8-11 8-6 10-4z" fill="#0F2D58"/>
<path transform="translate(1831,145)" d="m0 0h23l15 5 11 6 12 11 9 13 5 11 3 12v19l-4 16-6 12-7 9-5 6-11 8-12 6-12 3h-18l-13-3-12-6-9-7-9-9-8-13-5-15-1-4v-22l4-15 7-14 8-10 11-9 16-8z" fill="#0F2D58"/>
<path transform="translate(197,145)" d="m0 0h22l13 4 10 5 9 7 9 9 8 13 5 13 2 14-1 15-3 11-4 9-6 10-11 12-14 9-10 4-9 2h-18l-15-4-11-6-10-8-8-9-8-14-4-14-1-6v-14l3-16 8-16 7-9 8-8 13-8 11-4z" fill="#0F2D58"/>
<path transform="translate(1583,379)" d="m0 0h10l11 3 9 5 9 8 6 10 3 9v17l-4 11-7 9-9 8-11 5-5 1h-13l-9-2-9-5-8-7-7-11-3-9v-17l4-12 6-8 7-7 11-6z" fill="#FEFFFE"/>
<path transform="translate(1266,464)" d="m0 0h17l9 3 5 4 3 5v10l-6 8-10 4-11 1-12-2-6-4-5-6-1-2v-8l4-6 7-5z" fill="#FEFFFE"/>
<path transform="translate(680,464)" d="m0 0h17l10 4 6 7 1 2v8l-4 6-6 5-6 2h-19l-10-4-5-6-2-8 3-7 7-6z" fill="#FEFFFE"/>
<path transform="translate(377,552)" d="m0 0h42l6 1h10l3-1h44v1l-23 2h-61l-21-2z" fill="#254069"/>
<path transform="translate(860,358)" d="m0 0h1l-1 23-1 19v28l2 20 1 23 3 16v7l-2-4-4-25-2-24v-48z" fill="#254069"/>
<path transform="translate(1550,648)" d="m0 0h30l14 2v1l-8 1h-32l-13-2v-1z" fill="#254069"/>
<path transform="translate(1033,442)" d="m0 0 2 3 2 9 1 50 2 15v6l-2-4-2-15-1-16-1-31z" fill="#254069"/>
<path transform="translate(1550,544)" d="m0 0 7 1v2l34 1h15v1l-10 1h-32l-21-3-5-1v-1h8z" fill="#254069"/>
<path transform="translate(342,386)" d="m0 0h13l3 2v2h21l27 1v3l-2-1-33-1-25-2-6-1 2-1z" fill="#254069"/>
<path transform="translate(912,549)" d="m0 0 14 2v2l4 1-4 1h-18l-7-2 1-3h9z" fill="#254069"/>
<path transform="translate(1076,550)" d="m0 0 11 1 1 3 7-1-3 2-7 1h-10l-11-2 1-3z" fill="#254069"/>
<path transform="translate(188,275)" d="m0 0h6l3 3 3-1 22 3v1l-5 1h-18l-9-2v-2l-2-1z" fill="#254069"/>
<path transform="translate(1369,551)" d="m0 0h13l3 2 1 2-6 1h-10l-11-2 2-2h3l1 1z" fill="#233E67"/>
<path transform="translate(198,551)" d="m0 0h11l6 2h9l-3 2-7 1h-11l-11-2 3-2z" fill="#243F68"/>
<path transform="translate(1828,551)" d="m0 0h15l6 2 6 1v1l-6 1h-11l-11-2z" fill="#243F68"/>
<path transform="translate(821,391)" d="m0 0h1l2 12v36l-1 8-2-4v-7l1-2v-24l-1-5z" fill="#254069"/>
<path transform="translate(1834,277)" d="m0 0 15 2 1 1h7v1l-5 1h-18l-10-2v-1z" fill="#243F68"/>
<path transform="translate(780,551)" d="m0 0h16l1 3 3 1-6 1h-11l-7-1z" fill="#233E67"/>
<path transform="translate(1779,194)" d="m0 0h1v15l1 7-1 1v8l-2 4-1-4v-22z" fill="#254069"/>
<path transform="translate(1414,505)" d="m0 0 2 4v13l-2 7-3-4 1-11 1-4z" fill="#254069"/>
<path transform="translate(273,201)" d="m0 0h1l1 15-1 9-2-2-1-5z" fill="#254069"/>
<path transform="translate(545,343)" d="m0 0h1l1 9v12l-1 6-2-2z" fill="#254069"/>
<path transform="translate(1550,544)" d="m0 0 7 1 1 4-15-2-5-1v-1h8z" fill="#243F68"/>
<path transform="translate(543,507)" d="m0 0h1v10l-2 6-2-3 1-12z" fill="#233F68"/>
<path transform="translate(1665,263)" d="m0 0h14v1l-9 1-2 2h-5v-2l-6 1 3-2z" fill="#254069"/>
<path transform="translate(1408,444)" d="m0 0h1l-1 13-2 4-1-9 2-3z" fill="#254069"/>
<path transform="translate(320,308)" d="m0 0 2 1-12 12v-3l5-6z" fill="#1C3862"/>
</svg>
